<?xml version="1.0" encoding="UTF-8" standalone="no"?>
<svg
   xmlns:svg="http://www.w3.org/2000/svg"
   xmlns="http://www.w3.org/2000/svg"
   viewBox="0 0 150 150"
   version="1.1">
 <g transform="translate(-7,-18)">
    <path
       d="M 20.140625,32 C 13.433598,31.994468 7.9944684,37.433598 8,44.140625 V 148.85938 C 7.99447,155.56641 13.433598,161.00553 20.140625,161 h 4.726563 c 2.330826,8.74182 10.245751,14.82585 19.292968,14.83008 C 53.201562,175.81878 61.108176,169.73621 63.4375,161 h 4.841797 15.726562 c 4.418278,0 8,-3.58172 8,-8 V 40 l -8,-8 z"
       style="fill:#4285f4"/>
    <path
       d="M 80.007812,31.994141 C 79.997147,49.696887 80,67.396525 80,85.109375 L 63.369141,75.710938 C 60.971784,74.358189 58.004891,76.087168 58,78.839844 v 40.621096 c 0.0049,2.75267 2.971786,4.48165 5.369141,3.1289 L 80,113.18945 v 37.5918 2.21875 8 h 8 1.425781 36.054689 c 6.36195,-2.6e-4 11.51927,-5.15758 11.51953,-11.51953 V 43.480469 C 136.97822,37.133775 131.8272,32.000222 125.48047,32 Z"
       style="fill:#c8d1db" />
  </g>
</svg>
